<mxfile host="app.diagrams.net" agent="Mozilla/5.0 (Windows NT 10.0; Win64; x64) AppleWebKit/537.36 (KHTML, like Gecko) Chrome/128.0.0.0 Safari/537.36 OPR/114.0.0.0" version="26.0.6">
  <diagram name="Page-1" id="929967ad-93f9-6ef4-fab6-5d389245f69c">
    <mxGraphModel dx="1248" dy="569" grid="1" gridSize="10" guides="1" tooltips="1" connect="1" arrows="1" fold="1" page="1" pageScale="1.5" pageWidth="1169" pageHeight="826" background="none" math="0" shadow="0">
      <root>
        <mxCell id="0" style=";html=1;" />
        <mxCell id="1" style=";html=1;" parent="0" />
        <mxCell id="1672d66443f91eb5-1" value="&lt;p style=&quot;margin: 0px ; margin-top: 4px ; margin-left: 10px ; text-align: left&quot;&gt;&lt;b&gt;uc&lt;/b&gt;&amp;nbsp;[Model] PremiumGalop[Robot_Météo_Pénétromètre]&lt;/p&gt;" style="html=1;strokeWidth=1;shape=mxgraph.sysml.package;html=1;overflow=fill;whiteSpace=wrap;fillColor=none;gradientColor=none;fontSize=12;align=center;labelX=327.64;" parent="1" vertex="1">
          <mxGeometry x="300" y="270" width="1120" height="780" as="geometry" />
        </mxCell>
        <mxCell id="4VqIffsGQim2xEKF7OKt-1" value="Robot Autonome" style="shape=umlActor;verticalLabelPosition=bottom;verticalAlign=top;html=1;outlineConnect=0;" parent="1" vertex="1">
          <mxGeometry x="440" y="410" width="30" height="60" as="geometry" />
        </mxCell>
        <mxCell id="4VqIffsGQim2xEKF7OKt-2" value="Utilisateur" style="shape=umlActor;verticalLabelPosition=bottom;verticalAlign=top;html=1;outlineConnect=0;" parent="1" vertex="1">
          <mxGeometry x="440" y="630" width="30" height="60" as="geometry" />
        </mxCell>
        <mxCell id="rjw5BKhiwVMn2x_U4crC-1" value="Récupérer résistance&lt;br&gt;du terrain" style="ellipse;whiteSpace=wrap;html=1;" vertex="1" parent="1">
          <mxGeometry x="690" y="405" width="140" height="70" as="geometry" />
        </mxCell>
        <mxCell id="rjw5BKhiwVMn2x_U4crC-2" value="" style="endArrow=none;html=1;rounded=0;entryX=0;entryY=0.5;entryDx=0;entryDy=0;exitX=0.5;exitY=0.5;exitDx=0;exitDy=0;exitPerimeter=0;" edge="1" parent="1" source="4VqIffsGQim2xEKF7OKt-1" target="rjw5BKhiwVMn2x_U4crC-1">
          <mxGeometry width="50" height="50" relative="1" as="geometry">
            <mxPoint x="530" y="490" as="sourcePoint" />
            <mxPoint x="660" y="570" as="targetPoint" />
          </mxGeometry>
        </mxCell>
        <mxCell id="rjw5BKhiwVMn2x_U4crC-4" value="Station Météo" style="shape=umlActor;verticalLabelPosition=bottom;verticalAlign=top;html=1;outlineConnect=0;" vertex="1" parent="1">
          <mxGeometry x="440" y="850" width="30" height="60" as="geometry" />
        </mxCell>
      </root>
    </mxGraphModel>
  </diagram>
</mxfile>
